<?xml version="1.0" encoding="utf-8"?>
<!-- Generator: Adobe Illustrator 21.0.0, SVG Export Plug-In . SVG Version: 6.00 Build 0)  -->
<svg version="1.1" id="Camada_1" xmlns="http://www.w3.org/2000/svg" xmlns:xlink="http://www.w3.org/1999/xlink" x="0px" y="0px"
	 viewBox="0 0 500 500" style="enable-background:new 0 0 500 500;" xml:space="preserve">
<style type="text/css">
	.st0{fill:#232323;}
	.st1{fill:#00CCFF;}
	.st2{fill:#1E1E1E;}
</style>
<g id="logo_tipo">
	<g>
		<g>
			<g>
				<path class="st0" d="M371.6,232.8v10.2c-7,0-13-2.5-17.9-7.4c-5-5-7.4-10.9-7.4-17.9c0-7,2.5-13,7.4-17.9c5-5,10.9-7.4,17.9-7.4
					c5.8,0,10.9,1.7,15.2,5.1l10.2-5.1v50.8h-10.2v-5c-3.7,2.8-8,4.5-12.7,4.9v-10.3c3.1-0.5,5.9-1.9,8.2-4.3c3-3,4.5-6.6,4.5-10.8
					s-1.5-7.8-4.5-10.8c-3-3-6.6-4.5-10.8-4.5c-4.2,0-7.8,1.5-10.8,4.5c-3,3-4.5,6.6-4.5,10.8s1.5,7.8,4.5,10.8
					C363.8,231.3,367.4,232.8,371.6,232.8z"/>
				<path class="st1" d="M397.8,243.7h-11.8v-4.3c-3.5,2.4-7.5,3.8-11.8,4.2l-0.9,0.1v-11.8l0.7-0.1c2.9-0.4,5.5-1.8,7.8-4
					c2.8-2.8,4.2-6.2,4.2-10.2c0-4-1.4-7.4-4.2-10.2c-2.8-2.8-6.2-4.2-10.2-4.2c-4,0-7.4,1.4-10.2,4.2c-2.8,2.8-4.2,6.2-4.2,10.2
					c0,4,1.4,7.4,4.2,10.2c2.8,2.8,6.2,4.2,10.2,4.2h0.8v11.8h-0.8c-7.2,0-13.4-2.6-18.5-7.7c-5.1-5.1-7.7-11.3-7.7-18.5
					s2.6-13.4,7.7-18.5c5.1-5.1,11.3-7.7,18.5-7.7c5.8,0,10.9,1.7,15.3,4.9l10.9-5.4V243.7z M387.7,242.1h8.5v-48.7l-9.4,4.7
					l-0.4-0.3c-4.2-3.3-9.2-4.9-14.7-4.9c-6.8,0-12.6,2.4-17.4,7.2c-4.8,4.8-7.2,10.6-7.2,17.4s2.4,12.6,7.2,17.4
					c4.6,4.6,10.2,7,16.6,7.2v-8.5c-4.1-0.2-7.6-1.8-10.5-4.7c-3.1-3.1-4.7-6.9-4.7-11.3c0-4.4,1.6-8.2,4.7-11.3
					c3.1-3.1,6.9-4.7,11.3-4.7c4.4,0,8.2,1.6,11.3,4.7c3.1,3.1,4.7,6.9,4.7,11.3c0,4.4-1.6,8.2-4.7,11.3c-2.3,2.3-5,3.8-8,4.4v8.7
					c4.2-0.5,8-2.1,11.4-4.7l1.3-1V242.1z"/>
			</g>
		</g>
		<g>
			<path class="st0" d="M370.7,187.7c-8.2,0-15.2,2.9-21.1,8.8s-8.7,12.9-8.7,21.1c0,8.2,2.9,15.2,8.7,21.1
				c5.8,5.8,12.9,8.8,21.1,8.8v19.9c-13.7,0-25.4-4.9-35.2-14.6c-9.7-9.7-14.6-21.4-14.6-35.2c0-13.7,4.9-25.4,14.6-35.1
				c9.7-9.7,21.4-14.6,35.2-14.6V187.7z M375.7,168c11.6,1.1,21.7,5.8,30.2,14.3c1.7,1.7,3.2,3.5,4.6,5.4l-14.2,14.2
				c-1.3-1.9-2.8-3.7-4.5-5.5c-4.6-4.6-10-7.4-16.1-8.4V168z M375.7,247c6.1-1,11.5-3.8,16.2-8.5c1.7-1.7,3.2-3.5,4.4-5.4l14.2,14.2
				c-1.3,1.8-2.8,3.5-4.5,5.2c-8.6,8.7-18.7,13.6-30.3,14.6V247z"/>
			<path class="st1" d="M371.5,268h-0.8c-13.9,0-25.9-5-35.7-14.8c-9.8-9.8-14.8-21.8-14.8-35.7c0-13.9,5-25.9,14.8-35.7
				c9.8-9.8,21.8-14.8,35.7-14.8h0.8v21.5h-0.8c-8,0-14.9,2.9-20.5,8.5c-5.6,5.6-8.5,12.5-8.5,20.5c0,8,2.9,14.9,8.5,20.5
				c5.6,5.6,12.5,8.5,20.5,8.5h0.8V268z M369.9,168.6c-13.1,0.2-24.5,5-33.8,14.3c-9.5,9.5-14.3,21.1-14.3,34.6
				c0,13.4,4.8,25.1,14.3,34.6c9.3,9.3,20.7,14.1,33.8,14.3v-18.3c-8.1-0.2-15.1-3.2-20.8-9c-6-6-9-13.2-9-21.7c0-8.4,3-15.7,9-21.7
				c5.8-5.8,12.8-8.8,20.8-9V168.6z M374.9,267.9v-21.7l0.7-0.1c5.9-1,11.2-3.8,15.8-8.3c1.7-1.7,3.1-3.4,4.3-5.2l0.5-0.8l15.4,15.4
				l-0.4,0.6c-1.3,1.8-2.9,3.6-4.6,5.3c-8.7,8.8-19.1,13.8-30.8,14.9L374.9,267.9z M376.5,247.6v18.5c11-1.2,20.7-6,28.9-14.3
				c1.5-1.5,2.8-3,4-4.5l-13-13c-1.1,1.6-2.4,3.2-3.9,4.7C387.8,243.6,382.4,246.5,376.5,247.6z M396.1,203.2l-0.5-0.8
				c-1.2-1.9-2.7-3.7-4.4-5.3c-4.5-4.5-9.8-7.2-15.7-8.1l-0.7-0.1v-21.7l0.9,0.1c11.7,1.1,22.1,6,30.7,14.6c1.7,1.7,3.2,3.6,4.6,5.5
				l0.4,0.6L396.1,203.2z M376.5,187.4c6,1.1,11.3,3.9,15.9,8.5c1.5,1.5,2.9,3.1,4,4.8l13-13c-1.3-1.6-2.6-3.2-4.1-4.7
				c-8.1-8.1-17.8-12.8-28.8-14V187.4z"/>
		</g>
	</g>
	<g>
		<path class="st2" d="M53.2,196.6c-5.7,0-10.6,2.3-14.7,6.8c-4.1,4.5-6.1,9.9-6.1,16.3s2,11.8,6.1,16.3c4.1,4.5,8.9,6.8,14.7,6.8
			v9.2c-8.3,0-15.3-3.1-21.2-9.5c-5.9-6.3-8.8-13.9-8.8-22.8c0-8.9,2.9-16.5,8.8-22.8c5.9-6.3,12.9-9.5,21.2-9.5V196.6z M55.5,187.4
			c7.1,0.5,13.2,3.6,18.4,9.1l-6.4,6.4c-3.4-3.7-7.5-5.7-12.1-6.2V187.4z M55.5,242.5c4.6-0.5,8.6-2.6,12-6.3l6.4,6.4
			c-5.2,5.6-11.4,8.6-18.4,9.1V242.5z"/>
		<path class="st2" d="M106.3,224.2v9.2H93.2c0.7,1.9,1.8,3.6,3.3,5.2c2.7,2.7,6,4.1,9.8,4.1c4.6,0,9.2-0.8,13.8-2.3v9.2
			c-3.1,1.5-7.7,2.3-13.8,2.3c-6.4,0-11.8-2.3-16.3-6.8c-4.5-4.5-6.8-9.9-6.8-16.3s2.3-11.8,6.8-16.3c4.5-4.5,9.9-6.8,16.3-6.8
			s11.8,2.3,16.3,6.8c4.5,4.5,6.8,9.9,6.8,16.3v4.6h-20.7v-9.2h10.8c-0.7-1.9-1.8-3.6-3.3-5.2c-2.7-2.7-6-4.1-9.8-4.1
			c-3.8,0-7.1,1.4-9.8,4.1c-1.5,1.5-2.6,3.3-3.3,5.2H106.3z"/>
		<path class="st2" d="M147.7,209.2c3.4-2.3,7.2-3.5,11.5-3.5v9.2c-3.2,0-5.9,1.1-8.2,3.4c-2.2,2.2-3.4,5-3.4,8.2v25.4h-9.2v-41.5
			l9.2-4.6V209.2z M170.8,226.5c0-3.2-1.1-5.9-3.4-8.2c-1.7-1.7-3.6-2.7-5.9-3.1v-9.4c4.7,0.5,8.9,2.5,12.4,6
			c4.1,4.1,6.1,8.9,6.1,14.7v25.4h-9.2V226.5z"/>
		<path class="st2" d="M207.7,187.4v64.5h-9.2V215h-9.2v-9.2h9.2V192L207.7,187.4z M210,205.8h6.9v9.2H210V205.8z"/>
		<path class="st2" d="M226.1,205.8l9.2,4.6c4-3.1,8.6-4.6,13.8-4.6v9.2c-3.8,0-7.1,1.4-9.8,4.1c-2.7,2.7-4.1,6-4.1,9.8v23h-9.2
			V205.8z"/>
		<path class="st2" d="M267.6,227.9h-9.2c0.2-6,2.5-11.1,6.7-15.4c4.5-4.5,10-6.7,16.3-6.7c6.4,0,11.8,2.2,16.3,6.7
			c4.3,4.3,6.5,9.4,6.7,15.4h-9.2c-0.2-3.4-1.6-6.4-4-8.9c-2.7-2.7-6-4.1-9.8-4.1c-3.8,0-7.1,1.4-9.8,4.1
			C269.2,221.6,267.8,224.5,267.6,227.9z M295.2,230.2h9.3c-0.3,5.8-2.6,10.7-6.7,14.9c-4.5,4.5-9.9,6.8-16.3,6.8
			c-6.4,0-11.8-2.3-16.3-6.8c-4.2-4.1-6.4-9.1-6.7-14.9h9.3c0.3,3.2,1.6,6,4,8.4c2.7,2.7,6,4.1,9.8,4.1c3.8,0,7.1-1.4,9.8-4.1
			C293.6,236.2,294.9,233.5,295.2,230.2z"/>
	</g>
	<g>
		<path class="st2" d="M128.9,315l-6.4,18.4h-9.8l22.5-64.5h10.3l22.5,64.5h-9.8l-17.9-51.3l-8.3,23.6h14.7l3.2,9.2H128.9z"/>
		<path class="st2" d="M195.7,268.9v64.5h-9.2v-36.9h-9.2v-9.2h9.2v-13.8L195.7,268.9z M198,287.4h6.9v9.2H198V287.4z"/>
		<path class="st2" d="M227.4,300.6c-2.7,2.7-4.1,6-4.1,9.8c0,3.8,1.4,7.1,4.1,9.8c2.7,2.7,6,4.1,9.8,4.1c3.8,0,7.1-1.4,9.8-4.1
			c2.7-2.7,4.1-6,4.1-9.8c0-3.8-1.4-7.1-4.1-9.8c-2.2-2.2-4.6-3.4-7.5-3.9v-9.3c4.3,0.4,8.1,1.9,11.5,4.5v-4.6h9.2v46.1l-9.2-4.6
			c-4,3.1-8.6,4.6-13.8,4.6c-6.4,0-11.8-2.3-16.3-6.8c-4.5-4.5-6.8-9.9-6.8-16.3s2.3-11.8,6.8-16.3c4.5-4.5,9.9-6.8,16.3-6.8v9.2
			C233.3,296.6,230.1,297.9,227.4,300.6z"/>
		<path class="st2" d="M292.5,296.6c-3.8,0-7.1,1.4-9.8,4.1c-2.7,2.7-4.1,6-4.1,9.8c0,3.8,1.4,7.1,4.1,9.8c2.7,2.7,6,4.1,9.8,4.1
			v9.2c-6.4,0-11.8-2.3-16.3-6.8c-4.5-4.5-6.8-9.9-6.8-16.3s2.3-11.8,6.8-16.3c4.5-4.5,9.9-6.8,16.3-6.8V296.6z M294.8,287.5
			c5.4,0.5,10,2.7,14,6.6c0.8,0.8,1.5,1.6,2.1,2.5l-6.6,6.6c-0.6-0.9-1.3-1.7-2.1-2.5c-2.2-2.2-4.6-3.4-7.5-3.9V287.5z M294.8,324.1
			c2.8-0.5,5.3-1.8,7.5-4c0.8-0.8,1.5-1.6,2-2.5l6.6,6.6c-0.6,0.8-1.3,1.6-2.1,2.4c-4,4-8.7,6.3-14.1,6.8V324.1z"/>
		<path class="st2" d="M333.4,300.6c-2.7,2.7-4.1,6-4.1,9.8c0,3.8,1.4,7.1,4.1,9.8c2.7,2.7,6,4.1,9.8,4.1c3.8,0,7.1-1.4,9.8-4.1
			c2.7-2.7,4.1-6,4.1-9.8c0-3.8-1.4-7.1-4.1-9.8c-2.2-2.2-4.6-3.4-7.5-3.9v-9.3c4.3,0.4,8.1,1.9,11.5,4.5v-4.6h9.2v46.1l-9.2-4.6
			c-4,3.1-8.6,4.6-13.8,4.6c-6.4,0-11.8-2.3-16.3-6.8c-4.5-4.5-6.8-9.9-6.8-16.3s2.3-11.8,6.8-16.3c4.5-4.5,9.9-6.8,16.3-6.8v9.2
			C339.4,296.6,336.1,297.9,333.4,300.6z"/>
		<path class="st2" d="M388.7,300.6c-2.7,2.7-4.1,6-4.1,9.8c0,3.8,1.4,7.1,4.1,9.8c2.7,2.7,6,4.1,9.8,4.1c3.8,0,7.1-1.4,9.8-4.1
			c2.7-2.7,4.1-6,4.1-9.8c0-3.8-1.4-7.1-4.1-9.8c-2.2-2.2-4.6-3.4-7.5-3.9v-9.3c4.3,0.4,8.1,1.9,11.5,4.5v-23h9.2v64.5l-9.2-4.6
			c-4,3.1-8.6,4.6-13.8,4.6c-6.4,0-11.8-2.3-16.3-6.8c-4.5-4.5-6.8-9.9-6.8-16.3s2.3-11.8,6.8-16.3c4.5-4.5,9.9-6.8,16.3-6.8v9.2
			C394.7,296.6,391.4,297.9,388.7,300.6z"/>
		<path class="st2" d="M440,309.5h-9.2c0.2-6,2.5-11.1,6.7-15.4c4.5-4.5,10-6.7,16.3-6.7c6.4,0,11.8,2.2,16.3,6.7
			c4.3,4.3,6.5,9.4,6.7,15.4h-9.2c-0.2-3.4-1.6-6.4-4-8.9c-2.7-2.7-6-4.1-9.8-4.1c-3.8,0-7.1,1.4-9.8,4.1
			C441.6,303.1,440.2,306.1,440,309.5z M467.6,311.8h9.3c-0.3,5.8-2.6,10.7-6.7,14.9c-4.5,4.5-9.9,6.8-16.3,6.8
			c-6.4,0-11.8-2.3-16.3-6.8c-4.2-4.1-6.4-9.1-6.7-14.9h9.3c0.3,3.2,1.6,6,4,8.4c2.7,2.7,6,4.1,9.8,4.1c3.8,0,7.1-1.4,9.8-4.1
			C466,317.8,467.3,315,467.6,311.8z"/>
	</g>
	<g>
		<path class="st2" d="M51.6,300.9c-1.4,1.4-2.1,3.1-2.1,5c0,2,0.7,3.6,2.1,5c1.4,1.4,3.1,2.1,5,2.1c2,0,3.6-0.7,5-2.1
			c1.4-1.4,2.1-3.1,2.1-5c0-2-0.7-3.6-2.1-5c-1.1-1.1-2.4-1.8-3.8-2v-4.8c2.2,0.2,4.2,1,5.9,2.3v-11.9h4.8v33.3l-4.8-2.4
			c-2,1.6-4.4,2.4-7.1,2.4c-3.3,0-6.1-1.2-8.4-3.5c-2.3-2.3-3.5-5.1-3.5-8.4c0-3.3,1.2-6.1,3.5-8.4c2.3-2.3,5.1-3.5,8.4-3.5v4.8
			C54.7,298.8,53,299.5,51.6,300.9z"/>
		<path class="st2" d="M78,305.5h-4.8c0.1-3.1,1.3-5.7,3.5-7.9c2.3-2.3,5.1-3.5,8.4-3.5c3.3,0,6.1,1.2,8.4,3.5
			c2.2,2.2,3.4,4.9,3.5,7.9h-4.8c-0.1-1.8-0.8-3.3-2.1-4.6c-1.4-1.4-3.1-2.1-5-2.1c-2,0-3.6,0.7-5,2.1
			C78.8,302.2,78.1,303.7,78,305.5z M92.2,306.7H97c-0.2,3-1.3,5.5-3.5,7.7c-2.3,2.3-5.1,3.5-8.4,3.5c-3.3,0-6.1-1.2-8.4-3.5
			c-2.2-2.1-3.3-4.7-3.5-7.7h4.8c0.1,1.7,0.8,3.1,2.1,4.3c1.4,1.4,3.1,2.1,5,2.1c2,0,3.6-0.7,5-2.1
			C91.4,309.8,92.1,308.3,92.2,306.7z"/>
	</g>
</g>
</svg>
